<?xml version="1.0" encoding="utf-8"?>
<!-- Generator: Adobe Illustrator 28.1.0, SVG Export Plug-In . SVG Version: 6.00 Build 0)  -->
<svg version="1.1" id="Layer_1" xmlns="http://www.w3.org/2000/svg" xmlns:xlink="http://www.w3.org/1999/xlink" x="0px" y="0px"
	 viewBox="0 0 1920 438" style="enable-background:new 0 0 1920 438;" xml:space="preserve">
<style type="text/css">
	.st0{fill:#D13029;}
	.st1{fill:#D13129;}
	.st2{fill:#D13028;}
	.st3{fill:#D1322A;}
	.st4{fill:#D1342D;}
</style>
<path class="st0" d="M1392,176c-5-16.4-9.9-32.4-14.7-48.5c-0.3,0-0.6,0-1-0.1c-5.8,19.1-11.5,38.1-17.3,57.3c-5.7,0-11.1,0-16.9,0
	c-8.9-33-17.7-66.1-26.7-99.8c6.8,0,12.9-0.1,19,0.2c1,0,2.3,2,2.6,3.3c4.4,17.2,8.6,34.5,12.9,51.8c0.4,1.4,0.8,2.9,1.5,5.8
	c6.2-21.1,12-40.8,17.8-60.5c0.4-0.2,0.7-0.4,1-0.4c13.9-0.8,13.9-0.7,17.8,12.6c4.2,14.5,8.5,29,12.8,43.5c0.3,1.1,0.7,2.1,1.6,4.4
	c5.1-20.9,10-40.6,14.9-60.5c6.9,0,13.6,0,21,0c-8.9,33.3-17.7,66.3-26.6,99.7c-2.6,0-5,0-7.5,0C1394.9,185,1394.9,185,1392,176z"/>
<path class="st1" d="M273.1,127c-2,2.7-3.8,5.2-5.5,7.6c7.1,3.9,11.4,11.3,11.4,21.1c0.1,16.7-10.3,28.3-27.2,29
	c-15,0.6-29.9,0.1-45.3,0.1c0-33.1,0-66.1,0-99.5c1.5-0.1,2.9-0.3,4.3-0.3c13,0,26-0.3,39,0.2c14.4,0.6,24,8.1,26.8,20.4
	C278.2,113,277.8,120.2,273.1,127 M258.4,151.5c-2.3-2.5-4.3-6.7-6.9-7.1c-8.2-1.3-16.7-1.2-25-1.6c0,8.8,0,16.4,0,24.2
	c6.7,0,13,0.1,19.3,0C255.3,166.9,259.6,161.9,258.4,151.5 M249.6,124.7c6.3-3.1,8.1-6,7.7-11.8c-0.4-5-3.2-8.6-7.8-9
	c-7.6-0.7-15.4-0.2-22.9-0.2c0,7.1,0,14.2,0,21.2C234.2,124.9,241.4,124.9,249.6,124.7z"/>
<path class="st2" d="M685,237c0,28.8,0,57.1,0,86c-5.6,0-10.9,0.2-16.1-0.2c-1.4-0.1-2.9-1.9-3.8-3.2c-11.1-17-22.2-34-33.3-51
	c-0.9-1.3-1.8-2.6-3.5-4.9c0,20.5,0,39.7,0,59.1c-6.7,0-13,0-19.7,0c0-33,0-66,0-99.7c5.5,0,10.9-0.2,16.3,0.2
	c1.3,0.1,2.7,2.1,3.7,3.6c10.9,16.7,21.7,33.5,32.6,50.3c1,1.5,2,2.9,3.8,5.4c0-20.5,0-39.7,0-59.1c6.7,0,13,0,20,0
	C685,227.7,685,232.1,685,237z"/>
<path class="st2" d="M631.1,148c-4.8-7.3-9.4-14.3-14-21.4c-0.3,0.1-0.6,0.2-1,0.3c0,19.2,0,38.4,0,57.8c-6.7,0-13,0-19.6,0
	c0-33.1,0-66.1,0-99.7c5.5,0,10.8-0.2,16.1,0.2c1.4,0.1,2.9,2,3.8,3.4c10.9,16.6,21.6,33.2,32.4,49.8c1.1,1.7,2.2,3.3,4,6.1
	c0-20.4,0-39.5,0-59.1c6.9,0,13.3,0,19.9,0c0,33,0,65.9,0,99.6c-5.4,0-10.8,0.2-16.2-0.1c-1.2-0.1-2.6-1.8-3.4-3.1
	C645.7,170.6,638.5,159.4,631.1,148z"/>
<path class="st2" d="M1067.3,123.7c4.4,6.7,8.5,13.1,13.4,20.6c0-20.2,0-39.4,0-58.9c6.9,0,13.3,0,20,0c0,33,0,66,0,99.6
	c-5.3,0-10.4,0.3-15.5-0.2c-1.5-0.1-3.3-1.9-4.2-3.4c-11.1-16.8-22-33.7-33-50.6c-0.9-1.4-1.9-2.7-3.4-5c0,20.2,0,39.4,0,58.9
	c-6.9,0-13.3,0-20,0c0-33,0-65.9,0-99.6c5.4,0,10.9-0.2,16.3,0.1c1.2,0.1,2.6,1.8,3.4,3.1C1051.9,99.9,1059.4,111.7,1067.3,123.7z"
	/>
<path class="st1" d="M434.1,183.2c-5.4-11-10.8-21.4-15.6-32.2c-2-4.6-4.6-6.4-9.4-5.7c-2.1,0.3-4.2,0.1-6.7,0.1
	c0,13.3,0,26.1,0,39.3c-6.7,0-13.1,0-19.9,0c0-33,0-66,0-98.8c15.8,0,31.5-1,46.9,0.3c13.5,1.2,22.5,11.8,24.3,24.8
	c1.9,13.4-3.3,23.5-15.4,30.1c-0.6,0.3-1.1,0.7-1.9,1.3c7.2,14,14.4,28,21.9,42.5c-7.7,0-14.7,0-21.6-0.1
	C435.9,184.9,435.1,184.1,434.1,183.2 M431.1,107.5c-2.6-1.4-5-3.9-7.7-4.1c-6.9-0.6-13.8-0.2-20.8-0.2c0,8.5,0,16.6,0,25.1
	c6.2,0,12,0.2,17.8,0C432.2,127.8,437.2,118.6,431.1,107.5z"/>
<path class="st1" d="M1619.2,159c0-24.8,0-49,0-73.6c6.7,0,13,0,19.7,0c0,13.5,0,27,0,40.6c0.6,0.5,1.3,1,1.9,1.5
	c0.6-1.3,0.9-2.8,1.8-3.9c9.5-11.8,19-23.6,28.7-35.2c1.4-1.7,4.3-3,6.5-3.2c6.5-0.4,13-0.1,20.6-0.1c-1.3,1.8-2.2,3-3.2,4.1
	c-8.7,10.5-17.4,21.1-26.3,31.4c-2.6,3-3.2,5.3-0.9,9c10,16.5,19.7,33.2,29.5,49.8c0.9,1.5,1.8,3.1,3.2,5.6
	c-7.9,0-15.1,0.1-22.3-0.2c-1.1,0-2.4-2-3.2-3.3c-6.9-12.1-13.7-24.3-20.6-36.5c-0.8-1.4-1.7-2.8-2.9-4.6c-4,4.7-7.9,9-11.4,13.6
	c-1,1.3-1.1,3.4-1.1,5.1c-0.1,8.4,0,16.9,0,25.6c-6.7,0-13,0-20,0C1619.2,176.3,1619.2,167.9,1619.2,159z"/>
<path class="st0" d="M714.9,232.8c14.3-14.3,39.9-13.3,52.7-1.4c5.3,5,9.6,10.8,9.9,17.9c0.6,15.7,1.6,31.7-0.2,47.2
	c-1.9,17.2-19.2,28.5-37.4,27.2c-20.1-1.5-32.3-12.2-34.1-32.2c-1.2-13.7-0.3-27.6,0.4-41.3C706.5,243.7,709.9,237.9,714.9,232.8
	 M743.2,240.2c-10.4,0.2-16.6,5-17.3,15.4c-0.8,11.9-0.6,23.9,0.1,35.8c0.5,8.8,7.9,14.7,16.2,14.5c8.3-0.2,15.3-6.2,15.7-15.1
	c0.6-11.4,0.7-22.9,0.1-34.4C757.6,246.8,753.4,242.6,743.2,240.2z"/>
<path class="st1" d="M959.2,120.7c0.1,1.8,0.2,3.1,0.3,4.8c12.9,0,25.7,0,38.9,0c0,6,0,11.6,0,17.8c-12.7,0-25.6,0-38.8,0
	c0,8.1,0,15.5,0,23.5c15,0,30,0,45.4,0c0,6.2,0,11.8,0,17.7c-21.6,0-43.3,0-65.4,0c0-32.9,0-65.9,0-99.3c21.7,0,43.3,0,65.3,0
	c0,5.6,0,11.3,0,17.5c-15,0-30,0-45.6,0C959.2,109,959.2,114.6,959.2,120.7z"/>
<path class="st1" d="M1553,185c-6.4,0-12.4,0-18.6,0c0-33.4,0-66.3,0-99.6c21.8,0,43.5,0,65.5,0c0,5.6,0,11.2,0,17.3
	c-15,0-30,0-45.4,0c0,7.8,0,15,0,22.9c12.9,0,25.8,0,38.9,0c0,6.2,0,11.8,0,17.9c-13,0-25.7,0-38.8,0c0,8,0,15.5,0,23.5
	c15,0,30,0,45.3,0c0,6.1,0,11.8,0,18C1584.4,185,1568.9,185,1553,185z"/>
<path class="st1" d="M1477.1,143.6c-2.4,0-4.4,0-6.6,0c0,8,0,15.4,0,23.2c15,0,30,0,45.3,0c0,6.1,0,11.8,0,17.8
	c-21.6,0-43.3,0-65.3,0c0-33.1,0-66.1,0-99.4c21.9,0,43.5,0,65.4,0c0,5.7,0,11.4,0,17.5c-15,0-30,0-45.3,0c0,7.6,0,14.8,0,22.7
	c12.7,0,25.6,0,38.8,0c0,6.2,0,11.8,0,18.1C1498.7,143.6,1488.2,143.6,1477.1,143.6z"/>
<path class="st1" d="M1270.9,85c3-0.3,4.6,0.1,4.4,3.3c-0.3,4.6-0.1,9.3-0.1,14.5c-15.3,0-30.4,0-45.7,0c0,7.8,0,15,0,22.9
	c13,0,25.9,0,38.9,0c0,6.2,0,11.8,0,17.8c-13,0-25.8,0-38.9,0c0,7.9,0,15.3,0,23.3c14.9,0,30,0,45.3,0c0,6.2,0,11.8,0,17.8
	c-21.5,0-43.2,0-65.3,0c0-32.8,0-65.9,0-99.6C1229.9,85,1250.1,85,1270.9,85z"/>
<path class="st1" d="M356.9,85c2.3,0,4.1,0,6.1,0c0,6.1,0,11.7,0,17.8c-15.1,0-30.2,0-45.5,0c0,7.8,0,15,0,22.7
	c12.9,0,25.7,0,38.8,0c0,6,0,11.6,0,17.8c-12.7,0-25.6,0-38.8,0c0,8.1,0,15.5,0,23.5c15,0,30,0,45.4,0c0,6.2,0,11.8,0,17.7
	c-21.6,0-43.3,0-65.4,0c0-32.9,0-65.9,0-99.6C317.3,85,336.8,85,356.9,85z"/>
<path class="st1" d="M557.4,277c-0.4,9.1,0.3,18-1.6,26.3c-3.1,13.9-16.7,21.9-31.9,20.4c-15.4-1.5-26.2-11-26.9-25.7
	c-0.8-16.4-1-32.9,0-49.3c1-16.8,15.1-27.7,31.9-26.3c17.5,1.5,27.6,11.7,28.4,29.3C557.6,259.8,557.3,268.2,557.4,277 M538.7,267.5
	c-0.1-5.5,0.2-11-0.3-16.5c-0.6-7.5-5.3-11.9-11.7-11.9c-6.5,0-11.5,5-11.6,12.5c-0.3,14.3-0.2,28.6,0,43c0.1,5.3,2.4,9.7,7.8,11.6
	c8,2.8,15.2-2.5,15.6-12.2C539,285.5,538.7,277,538.7,267.5z"/>
<path class="st1" d="M989.7,315.3c-5.4-5.5-8-11.9-8.1-19.1c-0.2-15.3-0.5-30.6,0-45.9c0.8-22.8,22-31.3,39.1-26.9
	c12.8,3.3,20.9,12.8,21.3,26.2c0.5,15.1,0.3,30.3,0.2,45.5c-0.1,11.6-5.1,20.7-15.9,25.6c-11.4,5.2-22.6,4.5-33.3-2.5
	C991.9,317.3,991,316.4,989.7,315.3 M1000.1,275.5c0,6.2-0.1,12.3,0.1,18.5c0.2,7.6,4.7,12.6,11.2,12.9c6.7,0.3,11.5-4.4,12.3-12.3
	c0.1-1.5,0.1-3,0.1-4.5c0-10.7,0.1-21.3,0-32c0-3.3,0.4-7-0.9-9.8c-1.4-3.2-4.1-6.7-7.1-8.1c-7.7-3.6-15.2,2.4-15.6,11.9
	C999.9,259.5,1000.1,267,1000.1,275.5z"/>
<path class="st1" d="M724.2,106.5c4.3-14.1,14.4-20.3,27.9-21.7c12-1.3,23.6,0,33.8,7.2c1.6,1.1,3,2.5,4.3,3.6
	c-4.3,4.4-8.3,8.5-12.6,12.9c-6.4-6.2-14.4-7.1-22.7-6.5c-5,0.3-9,2.5-11.2,7.1c-3,6.4,0.4,13,7.9,14.8c5.3,1.2,10.8,1.8,16.2,2.8
	c16,3,23.9,10.8,25,24.6c1.2,16.1-5.6,27.5-21.1,31.9c-17.5,5.1-34.6,3.8-49.7-7.9c-0.9-0.7-1.8-1.5-2.5-2.1
	c4.6-4.3,8.9-8.4,12.7-11.9c6,2,12.5,4.8,19.3,6.2c4.2,0.9,9,0.2,13.3-0.8c5.8-1.3,8.7-5.8,8.4-11.4c-0.3-5.8-3.3-9-9.6-10.2
	c-3.9-0.7-7.9-1.4-11.8-1.9C729.3,139.9,721.2,129.3,724.2,106.5z"/>
<path class="st1" d="M855.8,162.7c1.8-3,3.3-5.7,5-8.7c6.2,0,12.7,0,19.2,0c-0.2,13.6-9.8,24.8-19.9,28.6
	c-14.8,5.5-28.7,4.5-41.3-5.8c-6.1-5-10.1-11.5-10.5-19.2c-0.7-14.1-0.9-28.3-0.3-42.4c0.8-19.4,18.3-32.1,38.3-30.9
	c19.4,1.2,33,14,34,31.8c-6,0-12,0.1-17.9-0.1c-1,0-2.4-1.5-2.9-2.6c-4.2-8.8-9.8-12.3-17.9-11c-8.1,1.3-13,6.3-13.5,16
	c-0.6,11.8-0.3,23.6,0.2,35.4c0.3,6.3,3.9,11,10,13.1C844.5,169,850.6,168.3,855.8,162.7z"/>
<path class="st1" d="M1160.3,102.5c-11.8-0.9-18.6,4.1-19.3,15.4c-0.7,11.7-0.5,23.6,0.1,35.4c0.4,8.4,6,13.6,13.9,14.6
	c7.7,1,13.8-2.6,16.9-10.3c1.1-2.7,2.3-3.9,5.4-3.7c5.3,0.3,10.6,0.1,15.9,0.1c-1,19.3-18.3,33.4-38.3,31.9
	c-20.1-1.6-32.2-12.3-34-32.3c-1.2-13.7-0.8-27.7,0.6-41.3c1.6-16.1,15.5-26.5,34-27.8c19.6-1.4,35.9,12,37.9,31.9
	c-6.1,0-12.2,0.2-18.2-0.2c-1.1-0.1-2.3-1.9-2.9-3.2C1169.7,107.7,1166.6,103.6,1160.3,102.5z"/>
<path class="st1" d="M796.6,258.5c-3.9-11.9-7.7-23.4-11.6-35.2c7.2,0,13.8,0,20.8,0c6.4,20.7,12.9,41.4,19.7,63.3
	c6.7-21.7,13.1-42.4,19.5-63.3c6.9,0,13.7,0,21,0c-3.6,11-7.2,21.9-10.8,32.7c-6.9,20.8-13.8,41.7-20.5,62.5
	c-1.1,3.4-2.6,4.6-6.2,4.6c-10.6-0.2-10.6-0.1-14-10.3C808.6,294.8,802.7,276.8,796.6,258.5z"/>
<path class="st1" d="M919.5,291.5c8.5-9.9,16.8-19.4,24.9-29.1c2-2.4,3.7-5.3,4.5-8.2c1.8-7.3-2.3-13.6-8.9-14.8
	c-7.7-1.4-12.8,2.8-14.4,12.3c-5.9,0-11.8,0-18.3,0c-0.3-9.8,3.2-17.7,11.1-23.5c14.9-10.9,39-6.3,46.5,9.2
	c5.6,11.5,4.5,22.7-3.8,32.7c-8.7,10.5-17.7,20.8-26.6,31.2c-1.2,1.4-2.3,2.7-4,4.8c12.8,0,24.9,0,37.2,0c0,5.9,0,11.2,0,16.9
	c-20.1,0-40.2,0-60.7,0c0-5.1-0.2-10.1,0.1-15c0.1-1.5,1.1-3,2.1-4.3C912.4,299.5,915.9,295.6,919.5,291.5z"/>
<path class="st1" d="M1110,306c3.1,0,5.8,0,8.7,0c0,5.7,0,11.1,0,16.7c-20.2,0-40.2,0-60.7,0c0-5.2-0.2-10.1,0.1-15.1
	c0.1-1.6,1.3-3.3,2.5-4.6c11.6-13.6,23.4-26.9,34.7-40.7c2.5-3.1,4.3-7.6,4.7-11.6c0.6-6.8-4.1-11.3-10.4-11.6
	c-6.9-0.4-11.4,3.2-12.6,10.1c-0.1,0.7-0.2,1.3-0.3,2.3c-6.1,0-12.1,0-18.6,0c0.1-10.7,3.8-19.3,12.9-24.5c11.9-6.9,24.3-6.8,36,0.3
	c12.5,7.6,16.5,26.4,7.7,38.4c-8.9,12.2-19.3,23.4-29,35c-1.2,1.5-2.5,3-4.5,5.3C1091.3,306,1100.4,306,1110,306z"/>
<path class="st3" d="M1151.7,247.7c3.6-7.2,7.1-13.9,10.3-20.9c1.4-3.1,3.2-4.1,6.5-3.9c5.1,0.3,10.2,0.1,16.2,0.1
	c-11.5,23-22.5,45.2-33.8,67.8c6.8,0,13,0,19.7,0c0-6,0-11.8,0-17.9c6,0,11.6,0,17.7,0c0,5.8,0,11.7,0,17.9c3.3,0.2,6.1,0.3,9.2,0.5
	c0,5.8,0,11.3,0,17.5c-2.8,0-5.5,0-8.8,0c0,4.9,0,9.3,0,14c-6.1,0-11.7,0-17.8,0c0-4.4,0-8.8,0-13.6c-13.7,0-27,0-40.8,0
	c0.2-8.9-1.3-17.2,3.5-25.5C1140.2,272.1,1145.6,259.9,1151.7,247.7z"/>
<path class="st1" d="M538.2,178c0,2.5,0,4.4,0,6.7c-21.7,0-43.1,0-64.8,0c0-33.1,0-66.1,0-99.4c6.6,0,12.8,0,19.6,0
	c0,27.1,0,54.1,0,81.6c15.1,0,29.7,0,45.2,0C538.2,170.7,538.2,174.1,538.2,178z"/>
<path class="st1" d="M448.2,274c0-9.9,0-19.4,0-30.2c-7,6.1-13.1,11.3-20.1,17.4c0-7.3,0-13.6,0-19.9c7.3-6.1,14-13.2,22.1-17.9
	c4.1-2.4,10.7-0.4,16.5-0.4c0,33.3,0,66.4,0,99.7c-5.9,0-11.9,0-18.5,0C448.2,306.7,448.2,290.6,448.2,274z"/>
<path class="st1" d="M229.4,274c0-9.9,0-19.4,0-30.2c-7,6.1-13.1,11.3-20.1,17.4c0-7.3,0-13.6,0-19.9c7.3-6.1,14-13.2,22.1-17.9
	c4.1-2.4,10.7-0.4,16.5-0.4c0,33.3,0,66.4,0,99.7c-5.9,0-11.9,0-18.5,0C229.4,306.6,229.4,290.6,229.4,274z"/>
<path class="st4" d="M299,274c35.6,0,70.7,0,106.1,0c0,5.9,0,11.5,0,17.4c-42.3,0-84.3,0-126.7,0c0-5.6,0-11.2,0-17.4
	C285,274,291.7,274,299,274z"/>
<path class="st1" d="M897.2,124c0-13.1,0-25.7,0-38.6c6.7,0,13,0,19.6,0c0,32.9,0,65.9,0,99.3c-6.2,0-12.6,0-19.6,0
	C897.2,164.6,897.2,144.6,897.2,124z"/>
<path class="st1" d="M573.1,183.8c-6.5,0.8-12.8,1.2-19.6,1.5c0-33.6,0-66.6,0-100c6.4,0,12.7,0,19.7,0
	C573.2,117.9,573.2,150.6,573.1,183.8z"/>
</svg>
