<?xml version="1.0" encoding="UTF-8"?>
<svg width="786px" height="173px" viewBox="0 0 786 173" version="1.1" xmlns="http://www.w3.org/2000/svg" xmlns:xlink="http://www.w3.org/1999/xlink">
    <title>logo sbb</title>
    <g id="Page-1" stroke="none" stroke-width="1" fill="none" fill-rule="evenodd">
        <g id="Desktop-HD" transform="translate(-313.000000, -242.000000)" fill="#FFFFFF">
            <g id="logo-sbb" transform="translate(313.000000, 242.000000)">
                <path d="M0,2.51870761 L0,125.066468 C12.9474506,109.223642 24.1145594,102.631646 28.8040504,100.55009 C29.2400036,100.356665 29.2579687,100.05545 29.2370095,99.9284969 C29.2004804,99.7039331 28.981905,99.4757763 28.4172019,99.48416 C26.1110813,99.5141018 21.3449392,100.808188 18.2291913,101.957955 C17.5045987,102.225635 17.3890232,101.742972 17.6842498,101.191444 C18.3519528,99.9404736 21.400631,97.0708477 30.5125319,93.3921931 C45.5553125,87.3199879 61.104709,87.9823014 68.2230821,91.5555607 C71.3765568,93.1424782 72.6993873,96.2971505 73.0850382,97.4343416 C73.133544,97.5780624 73.0670731,97.6583066 72.9580848,97.6571089 C61.9095457,97.5343473 56.9308165,98.0954574 53.6348187,99.1021021 C52.6521275,99.4021193 52.5575112,100.133898 53.4216328,100.790223 C54.980405,101.973525 59.8243959,103.215512 61.7598365,103.537686 C62.3383128,103.634099 62.6521033,103.442471 63.0102077,103.032268 C63.424004,102.559187 63.948585,101.8831 64.4090905,101.433973 C64.7707879,101.082455 64.9528343,101.045926 65.6379036,100.996223 C66.6625134,100.922566 69.0219304,100.886037 71.0992953,100.922566 C80.7782946,101.094432 91.5771188,103.488582 91.5771188,117.192363 C91.5771188,122.119592 89.5578411,126.935438 88.6062894,128.407978 C87.9823014,129.375698 86.9918254,129.332582 87.0475172,127.884594 C87.305017,121.155465 86.2199247,118.391235 75.5726063,118.391235 C70.1878657,118.391235 61.6855807,119.169124 57.8679961,120.96264 C56.4541424,121.62675 56.3164099,122.844185 57.7458333,122.719627 C59.8663145,122.536383 68.1811636,121.963895 74.0713224,121.963895 C77.9667558,121.963895 81.0298061,122.353738 82.1358577,123.905923 C82.4035377,124.281393 82.4580319,124.984428 81.5262418,124.850288 C81.1507711,124.795794 80.1638881,124.683213 78.7889588,124.683213 C66.5331647,124.683213 54.5528355,131.909975 54.5528355,144.423868 C54.5528355,164.31064 83.8209845,172.267983 120.426681,172.267983 C149.902626,172.267983 169.749276,165.940674 169.749276,165.940674 L169.74688,2.51870761 L0,2.51870761" id="Fill-1"></path>
                <path d="M773.59715,159.341492 L785.454118,142.315364 L785.454118,139.221174 L767.171631,139.221174 L767.039886,142.898631 L780.513715,142.898631 L780.555633,142.988456 L778.447728,145.863472 L766.542852,162.934513 L766.542852,165.98379 L785.585862,165.98379 L785.723595,162.306333 L771.531163,162.306333 L771.483256,162.171595 L773.59715,159.341492 Z M754.817627,142.539329 L761.422797,142.539329 L761.422797,139.221174 L754.817627,139.221174 L754.817627,132.304609 L751.500071,132.659719 L750.691642,139.221174 L746.829144,139.221174 L746.829144,142.539329 L750.559898,142.539329 L750.559898,158.751039 C750.559898,163.427954 752.93728,165.98379 757.512393,165.98379 C758.949601,165.98379 760.434717,165.714912 761.243146,165.311296 L760.97367,162.090153 C760.434717,162.309327 759.488554,162.441071 758.728032,162.441071 C756.302743,162.441071 754.817627,161.342805 754.817627,158.619295 L754.817627,142.539329 Z M740.176067,132.436952 C740.176067,130.956627 739.277812,130.148796 737.439383,130.148796 C735.600954,130.148796 734.702699,130.956627 734.702699,132.436952 C734.702699,134.141241 735.600954,134.724508 737.439383,134.724508 C739.277812,134.724508 740.176067,134.006503 740.176067,132.436952 L740.176067,132.436952 Z M713.947015,146.413803 C713.947015,144.260985 715.971084,142.898631 719.162884,142.898631 C721.318696,142.898631 723.881718,143.381892 726.121367,144.3047 L726.48067,140.746411 C724.330845,139.759528 721.857649,139.221174 719.252709,139.221174 C713.096667,139.221174 709.910855,142.181224 709.910855,146.633576 C709.910855,155.465221 723.612241,152.697398 723.612241,158.629475 C723.612241,161.090095 721.995382,162.935112 718.084977,162.935112 C715.521956,162.935112 712.467888,162.144647 710.449808,160.650549 L709.910855,164.280698 C711.976842,165.760424 714.935096,166.522743 718.126896,166.522743 C724.732066,166.522743 727.558576,163.159675 727.558576,158.233644 C727.558576,149.094196 713.947015,151.994363 713.947015,146.413803 L713.947015,146.413803 Z M704.38958,153.183653 C704.437487,152.600985 704.479405,151.793753 704.479405,151.121858 C704.479405,142.983067 700.311501,139.221174 693.927901,139.221174 C686.562208,139.221174 682.88535,143.872938 682.88535,151.883578 C682.88535,161.902118 686.514301,166.522743 695.32319,166.522743 C698.556909,166.522743 701.3415,165.760424 703.58115,164.549576 L703.090104,160.958351 C700.802547,162.081769 698.514991,162.665635 695.814237,162.665635 C690.065403,162.665635 687.460463,160.239148 687.232905,153.183653 L704.38958,153.183653 Z M700.580978,150.269713 L687.14308,150.269713 C687.412556,145.271222 689.436625,142.898631 693.975808,142.898631 C697.838305,142.898631 700.491152,144.932281 700.580978,150.269713 L700.580978,150.269713 Z M677.579656,152.512956 L677.579656,152.509962 C677.579656,142.360277 673.633321,138.727134 667.387453,138.727134 C664.423211,138.727134 661.680539,139.714017 659.746296,141.732097 L659.65647,141.687184 L659.704377,138.098355 L659.704377,130.238622 L655.488566,130.508098 L655.488566,165.98379 L658.315076,165.98379 L658.985773,163.199199 L659.117517,163.154286 C660.782283,165.222069 663.566875,166.47783 666.890419,166.47783 C673.67524,166.47783 677.579656,162.57581 677.579656,152.512956 L677.579656,152.512956 Z M673.274019,152.602781 C673.274019,160.914037 670.489428,162.935112 666.309547,162.935112 C663.027921,162.935112 660.782283,161.408078 659.704377,159.655881 L659.704377,145.774245 C661.093679,143.752572 663.43513,142.584242 666.26164,142.584242 C670.669079,142.584242 673.274019,144.471176 673.274019,152.602781 L673.274019,152.602781 Z M648.787582,143.880723 L649.057059,139.580476 C648.338455,139.355912 647.398281,139.221174 646.4102,139.221174 C642.769272,139.221174 639.852937,141.463818 638.194159,145.292182 L638.104333,145.292182 L637.745031,139.580476 L634.331662,139.804441 L634.331662,165.98379 L638.59538,165.98379 L638.59538,152.66027 C638.59538,147.01264 641.960843,143.52741 646.140723,143.52741 C647.080897,143.52741 647.979152,143.616037 648.787582,143.880723 L648.787582,143.880723 Z M626.379109,157.186278 L626.379109,139.221174 L622.163298,139.221174 L622.163298,157.096453 C622.163298,160.734386 620.049404,162.57581 616.007255,162.57581 C611.875281,162.57581 609.809294,160.689474 609.809294,157.096453 L609.809294,139.221174 L605.587495,139.221174 L605.587495,157.186278 C605.587495,163.069251 608.952958,166.47783 615.959348,166.47783 C623.013646,166.47783 626.379109,163.114164 626.379109,157.186278 L626.379109,157.186278 Z M593.335294,142.539329 L599.934475,142.539329 L599.934475,139.221174 L593.335294,139.221174 L593.335294,132.304609 L590.011749,132.659719 L589.20332,139.221174 L585.340822,139.221174 L585.340822,142.539329 L589.071576,142.539329 L589.071576,158.751039 C589.071576,163.427954 591.448958,165.98379 596.030059,165.98379 C597.461279,165.98379 598.946395,165.714912 599.754824,165.311296 L599.485348,162.090153 C598.946395,162.309327 598.006221,162.441071 597.23971,162.441071 C594.814421,162.441071 593.335294,161.342805 593.335294,158.619295 L593.335294,142.539329 Z M574.112632,165.98379 L578.37635,165.98379 L578.37635,130.283535 L574.112632,130.553011 L574.112632,165.98379 Z M565.303743,157.186278 L565.303743,139.221174 L561.09392,139.221174 L561.09392,157.096453 C561.09392,160.734386 558.980026,162.57581 554.937878,162.57581 C550.799915,162.57581 548.733928,160.689474 548.733928,157.096453 L548.733928,139.221174 L544.518117,139.221174 L544.518117,157.186278 C544.518117,163.069251 547.88358,166.47783 554.889971,166.47783 C561.944268,166.47783 565.303743,163.114164 565.303743,157.186278 L565.303743,157.186278 Z M539.671731,165.98379 L527.365635,148.246244 L538.99804,132.304609 L533.519282,132.304609 L523.189347,146.541954 L518.203431,146.541954 L518.203431,132.304609 L513.627719,132.304609 L513.627719,165.98379 L518.203431,165.98379 L518.203431,150.443975 L523.098922,150.443975 L533.922898,165.98379 L539.671731,165.98379 Z M492.20074,143.880723 L492.469617,139.580476 C491.750414,139.355912 490.807845,139.221174 489.819166,139.221174 C486.181831,139.221174 483.262501,141.463818 481.600729,145.292182 L481.511502,145.292182 L481.1522,139.580476 L477.743621,139.804441 L477.743621,165.98379 L482.004345,165.98379 L482.004345,152.66027 C482.004345,147.01264 485.372802,143.52741 489.550288,143.52741 C490.492857,143.52741 491.391112,143.616037 492.20074,143.880723 L492.20074,143.880723 Z M470.867777,153.183653 C470.912091,152.600985 470.956405,151.793753 470.956405,151.121858 C470.956405,142.983067 466.785507,139.221174 460.4049,139.221174 C453.037411,139.221174 449.359954,143.872938 449.359954,151.883578 C449.359954,161.902118 452.992498,166.522743 461.797795,166.522743 C465.032711,166.522743 467.817302,165.760424 470.059946,164.549576 L469.566505,160.958351 C467.278948,162.081769 464.988397,162.665635 462.292434,162.665635 C456.540606,162.665635 453.935068,160.239148 453.709905,153.183653 L470.867777,153.183653 Z M467.054983,150.269713 L453.620678,150.269713 C453.890155,145.271222 455.911828,142.898631 460.449813,142.898631 C464.314107,142.898631 466.965158,144.932281 467.054983,150.269713 L467.054983,150.269713 Z M438.715031,165.98379 L442.931441,165.98379 L442.931441,148.243249 C442.931441,142.135713 439.746827,138.727134 433.907569,138.727134 C431.076868,138.727134 428.335992,139.669104 426.404144,141.687184 L426.31372,141.64287 L426.358633,138.053442 L426.358633,130.283535 L422.142223,130.551215 L422.142223,165.98379 L426.358633,165.98379 L426.358633,145.728135 C427.437138,144.02145 429.863624,142.674067 432.649413,142.674067 C436.783783,142.674067 438.715031,144.650229 438.715031,148.243249 L438.715031,165.98379 Z M401.478161,152.631525 C401.478161,145.852094 403.633375,143.123195 409.427121,143.123195 C411.358968,143.123195 413.289618,143.607654 414.861565,144.311886 L415.131041,140.521848 C413.380042,139.759528 410.954154,139.221174 408.573778,139.221174 C400.580504,139.221174 397.0821,143.783712 397.0821,152.631525 C397.0821,162.2716 400.939208,166.567656 408.439639,166.567656 C411.268544,166.567656 413.783658,165.805336 415.355605,164.729227 L415.041216,161.258967 C413.424356,162.227286 411.448195,162.755461 409.337894,162.755461 C404.21724,162.755461 401.478161,160.026561 401.478161,152.631525 L401.478161,152.631525 Z M378.392403,146.413803 C378.392403,144.260985 380.414675,142.898631 383.605277,142.898631 C385.762288,142.898631 388.323513,143.381892 390.566157,144.3047 L390.92486,140.746411 C388.772041,139.759528 386.30184,139.221174 383.695702,139.221174 C377.540258,139.221174 374.356243,142.181224 374.356243,146.633576 C374.356243,155.465221 388.054635,152.697398 388.054635,158.629475 C388.054635,161.090095 386.436578,162.935112 382.526772,162.935112 C379.965547,162.935112 376.912677,162.144647 374.894597,160.650549 L374.356243,164.280698 C376.419236,165.760424 379.381083,166.522743 382.571685,166.522743 C389.175657,166.522743 392.00097,163.159675 392.00097,158.233644 C392.00097,149.094196 378.392403,151.994363 378.392403,146.413803 L378.392403,146.413803 Z M366.670771,132.436952 C366.670771,130.956627 365.772516,130.148796 363.933488,130.148796 C362.094461,130.148796 361.196804,130.956627 361.196804,132.436952 C361.196804,134.141241 362.094461,134.724508 363.933488,134.724508 C365.772516,134.724508 366.670771,134.006503 366.670771,132.436952 L366.670771,132.436952 Z M354.184425,157.479109 C354.184425,150.177492 344.30781,148.982813 344.30781,146.682082 C344.30781,144.823292 350.147666,142.566276 350.147666,138.097756 C350.147666,134.546055 346.823523,131.720743 342.016061,131.720743 C335.277949,131.720743 331.554981,135.752112 331.554981,143.2747 L331.554981,172.679384 L335.770792,172.679384 L335.770792,142.876474 C335.770792,137.876187 337.837977,135.3982 341.926236,135.3982 C344.487461,135.3982 346.104919,136.592879 346.104919,138.230099 C346.104919,141.814736 339.769824,143.93881 339.769824,147.21325 C339.769824,151.372771 349.878788,152.12491 349.878788,157.611452 C349.878788,160.620607 347.227738,162.08117 343.498781,162.08117 C341.813654,162.08117 340.192004,161.655397 338.82486,161.040392 L338.558377,164.927442 C340.267458,165.64365 342.398119,165.982592 344.217385,165.982592 C350.192579,165.982592 354.184425,162.753664 354.184425,157.479109 L354.184425,157.479109 Z M323.330556,157.186278 L323.330556,139.221174 L319.114745,139.221174 L319.114745,157.096453 C319.114745,160.734386 317.002648,162.57581 312.958703,162.57581 C308.824932,162.57581 306.757748,160.689474 306.757748,157.096453 L306.757748,139.221174 L302.541937,139.221174 L302.541937,157.186278 C302.541937,163.069251 305.905603,166.47783 312.91379,166.47783 C319.96689,166.47783 323.330556,163.114164 323.330556,157.186278 L323.330556,157.186278 Z M296.069109,153.183653 C296.114022,152.600985 296.158935,151.793753 296.158935,151.121858 C296.158935,142.983067 291.987438,139.221174 285.60743,139.221174 C278.239941,139.221174 274.561287,143.872938 274.561287,151.883578 C274.561287,161.902118 278.195028,166.522743 287.000325,166.522743 C290.235241,166.522743 293.019832,165.760424 295.261877,164.549576 L294.768436,160.958351 C292.481478,162.081769 290.190329,162.665635 287.494365,162.665635 C281.743137,162.665635 279.136999,160.239148 278.912435,153.183653 L296.069109,153.183653 Z M292.256914,150.269713 L278.822609,150.269713 C279.092086,145.271222 281.114358,142.898631 285.652343,142.898631 C289.516637,142.898631 292.167688,144.932281 292.256914,150.269713 L292.256914,150.269713 Z M270.340685,143.880723 L270.610161,139.580476 C269.891557,139.355912 268.948389,139.221174 267.960309,139.221174 C264.322375,139.221174 261.403046,141.463818 259.741872,145.292182 L259.652047,145.292182 L259.293343,139.580476 L255.884166,139.804441 L255.884166,165.98379 L260.145488,165.98379 L260.145488,152.66027 C260.145488,147.01264 263.513945,143.52741 267.690832,143.52741 C268.634,143.52741 269.532255,143.616037 270.340685,143.880723 L270.340685,143.880723 Z M249.2766,142.856712 C249.2766,135.534136 245.777597,132.304609 237.512451,132.304609 L226.332168,132.304609 L226.332168,165.98379 L230.90788,165.98379 L230.90788,153.363304 L237.512451,153.363304 C245.867422,153.363304 249.2766,149.775673 249.2766,142.856712 L249.2766,142.856712 Z M244.566749,142.856712 C244.566749,148.023476 242.275,149.506196 237.512451,149.506196 L230.90788,149.506196 L230.90788,136.296455 L237.512451,136.296455 C242.409739,136.296455 244.566749,137.958826 244.566749,142.856712 L244.566749,142.856712 Z M366.041993,139.221174 L361.78067,139.442744 L361.78067,165.98379 L366.041993,165.98379 L366.041993,139.221174 Z M739.547289,139.221174 L735.289559,139.442744 L735.289559,165.98379 L739.547289,165.98379 L739.547289,139.221174 L739.547289,139.221174 Z" id="Fill-2"></path>
                <path d="M247.338165,74.5683569 L247.338165,69.5207615 L226.939987,69.5207615 L226.706441,75.5498505 L238.916723,75.5498505 L238.964032,75.643269 L236.718393,78.5919415 L226.332168,92.7711994 L226.332168,97.8661029 L247.572311,97.8661029 L247.759148,91.837014 L234.753011,91.837014 L234.706302,91.6962873 L236.95194,88.794923 L247.338165,74.5683569 Z M276.949448,69.5207615 L269.703523,69.5207615 L269.703523,87.7200109 C269.703523,90.6201776 268.205832,91.9771418 265.022415,91.9771418 C261.838999,91.9771418 260.340709,90.526759 260.340709,87.7200109 L260.340709,69.5207615 L253.095383,69.5207615 L253.095383,87.8601387 C253.095383,94.5946575 256.975246,98.3805038 265.022415,98.3805038 C273.069584,98.3805038 276.949448,94.7347853 276.949448,87.8601387 L276.949448,69.5207615 Z M324.200666,87.6703075 C324.200666,83.2227465 322.143662,80.4645041 318.263199,79.3895921 L318.263199,79.2961735 C321.068151,78.1278429 322.938318,75.6953678 322.938318,71.7622077 C322.938318,66.1960195 319.105164,62.7838474 311.478378,62.7838474 L297.21169,62.7838474 L297.21169,97.8661029 L311.665814,97.8661029 C320.50764,97.8661029 324.200666,93.9862393 324.200666,87.6703075 L324.200666,87.6703075 Z M316.299613,87.0618893 C316.299613,90.3860324 314.89594,91.4160317 311.759233,91.4160317 L304.785179,91.4160317 L304.785179,82.8951828 L311.572396,82.8951828 C314.989358,82.8951828 316.299613,84.1120191 316.299613,87.0618893 L316.299613,87.0618893 Z M315.410341,73.16648 C315.410341,75.9289142 314.193504,77.0529309 311.38496,77.0529309 L304.831888,77.0529309 L304.831888,69.4213546 L311.197524,69.4213546 C314.146795,69.4213546 315.410341,70.4052435 315.410341,73.16648 L315.410341,73.16648 Z M342.917909,98.3805038 C346.521709,98.3805038 349.793754,97.6325566 352.177723,96.5576445 L351.383067,90.7129973 C348.952388,91.6489792 346.475,92.1172696 343.807182,92.1172696 C338.938639,92.1172696 336.645094,90.3387243 336.270821,85.6085123 L352.785542,85.6085123 C352.92567,84.6270188 352.972379,83.2718511 352.972379,82.1975379 C352.972379,73.2131892 348.532005,69.0057618 341.279492,69.0057618 C332.764631,69.0057618 328.79075,74.2875025 328.79075,83.3191592 C328.79075,93.2388909 333.138306,98.3805038 342.917909,98.3805038 L342.917909,98.3805038 Z M336.130094,80.7956609 C336.457658,76.674466 337.815221,75.0354497 341.326201,75.0354497 C344.368891,75.0354497 346.241454,76.6277567 346.334872,80.7956609 L336.130094,80.7956609 Z M365.697662,97.8661029 L365.697662,83.9497344 C365.697662,79.3267142 368.505009,76.6259602 372.294448,76.6259602 C373.417267,76.6259602 374.493377,76.8086054 375.38205,77.0834715 L375.849742,69.9411449 C375.101196,69.7081974 374.025086,69.5207615 372.762139,69.5207615 C369.53381,69.5207615 366.773771,71.2040918 364.996424,74.6156651 L364.856296,74.6156651 L364.201767,69.8950345 L358.405027,70.1752901 L358.405027,97.8661029 L365.697662,97.8661029 Z M388.668443,97.8661029 L388.668443,61.0999183 L381.329099,61.4268832 L381.329099,97.8661029 L388.668443,97.8661029 Z M404.247781,97.8661029 L404.247781,69.5207615 L396.81442,69.8435345 L396.81442,97.8661029 L404.247781,97.8661029 Z M404.668165,63.3886726 C404.668165,61.332267 403.405817,60.2573549 400.554754,60.2573549 C397.749204,60.2573549 396.393438,61.3789763 396.393438,63.3886726 C396.393438,65.6792234 397.749204,66.4738798 400.554754,66.4738798 C403.405817,66.4738798 404.668165,65.445677 404.668165,63.3886726 L404.668165,63.3886726 Z M435.732225,97.8661029 L435.732225,79.8069813 C435.732225,72.7454977 431.94578,68.9596514 425.95861,68.9596514 C423.009338,68.9596514 420.247503,69.9405461 418.141993,71.7634053 L417.067081,69.3339244 L411.83145,69.6602905 L411.83145,97.8661029 L419.123486,97.8661029 L419.123486,77.5613433 C420.106776,76.2049779 422.072757,75.4097227 423.898611,75.4097227 C426.894591,75.4097227 428.4863,76.6726695 428.4863,79.8069813 L428.4863,97.8661029 L435.732225,97.8661029 L435.732225,97.8661029 Z" id="Fill-3"></path>
                <path d="M248.315467,27.0865865 C248.315467,15.2002747 232.175019,17.727366 232.175019,12.2522011 C232.175019,10.3802372 233.345146,8.8831452 237.699288,8.8831452 C240.367705,8.8831452 243.266674,9.44425529 246.165044,10.3802372 L247.146538,3.74093354 C244.435603,2.6193122 240.742577,1.91747546 237.325015,1.91747546 C228.435283,1.91747546 224.60153,6.73212339 224.60153,12.6725845 C224.60153,24.4193673 240.742577,22.0785143 240.742577,27.6015861 C240.742577,30.0346601 239.056851,31.4389324 235.217708,31.4389324 C231.754036,31.4389324 228.575411,30.5029505 225.490203,28.864533 L224.461402,35.645761 C227.4999,37.2817831 231.240234,38.2632767 235.311726,38.2632767 C243.50022,38.2632767 248.315467,34.0097388 248.315467,27.0865865 L248.315467,27.0865865 Z M267.768681,14.6840774 L267.768681,9.26280774 L261.452749,9.26280774 L261.452749,2.52589365 L255.749427,3.02592239 L254.534387,9.26280774 L251.025802,9.26280774 L251.025802,14.6840774 L254.206824,14.6840774 L254.206824,29.0352014 C254.206824,34.3367037 256.965066,37.6075503 262.622277,37.6075503 C264.63377,37.6075503 266.505135,37.2338762 267.487826,36.8134927 L267.066844,31.5407347 C266.551844,31.7221822 265.569752,31.8593158 264.821206,31.8593158 C262.575568,31.8593158 261.452749,30.9478862 261.452749,28.8070446 L261.452749,14.6840774 L267.768681,14.6840774 Z M288.493225,37.6075503 L294.056419,37.6075503 L294.056419,20.0694168 C294.056419,12.3007069 291.158049,8.70169765 282.784514,8.70169765 C279.132807,8.70169765 275.905675,9.35622628 273.054613,10.5712662 L273.662433,16.369803 C276.279948,15.2918967 278.336953,14.8242052 281.47366,14.8242052 C285.359512,14.8242052 286.857203,16.1356578 286.857203,18.993307 L286.857203,20.629928 C285.359512,20.1634341 283.533659,19.8364692 281.426951,19.8364692 C274.970891,19.8364692 271.325173,23.4342808 271.325173,28.6723063 C271.325173,34.5702501 274.737345,37.6075503 280.116097,37.6075503 C283.346223,37.6075503 286.061349,36.4398186 287.791987,34.383413 L287.932714,34.4295234 L288.493225,37.6075503 Z M286.857203,28.9992712 C286.857203,30.4550435 284.610367,31.8593158 282.128787,31.8593158 C279.741225,31.8593158 278.102808,30.937706 278.102808,28.3477368 C278.102808,26.020657 279.601097,24.8355589 282.831223,24.8355589 C284.750495,24.8355589 286.155366,25.143361 286.857203,25.4062504 L286.857203,28.9992712 Z M316.61041,37.6075503 L322.173005,37.6075503 L322.173005,20.0694168 C322.173005,12.3007069 319.275233,8.70169765 310.901698,8.70169765 C307.249992,8.70169765 304.02286,9.35622628 301.171798,10.5712662 L301.779018,16.369803 C304.397133,15.2918967 306.454137,14.8242052 309.590845,14.8242052 C313.476098,14.8242052 314.974387,16.1356578 314.974387,18.993307 L314.974387,20.629928 C313.476098,20.1634341 311.650244,19.8364692 309.543536,19.8364692 C303.088076,19.8364692 299.441758,23.4342808 299.441758,28.6723063 C299.441758,34.5702501 302.854529,37.6075503 308.232683,37.6075503 C311.463407,37.6075503 314.178533,36.4398186 315.909172,34.383413 L316.0493,34.4295234 L316.61041,37.6075503 Z M314.974387,28.9992712 C314.974387,30.4550435 312.726953,31.8593158 310.245972,31.8593158 C307.85841,31.8593158 306.219992,30.937706 306.219992,28.3477368 C306.219992,26.020657 307.717683,24.8355589 310.948408,24.8355589 C312.86768,24.8355589 314.271952,25.143361 314.974387,25.4062504 L314.974387,28.9992712 Z M343.506566,14.6840774 L343.506566,9.26280774 L337.190634,9.26280774 L337.190634,2.52589365 L331.487312,3.02592239 L330.272273,9.26280774 L326.763688,9.26280774 L326.763688,14.6840774 L329.944709,14.6840774 L329.944709,29.0352014 C329.944709,34.3367037 332.702951,37.6075503 338.360163,37.6075503 C340.372254,37.6075503 342.243619,37.2338762 343.225712,36.8134927 L342.804729,31.5407347 C342.290328,31.7221822 341.307637,31.8593158 340.559091,31.8593158 C338.313453,31.8593158 337.190634,30.9478862 337.190634,28.8070446 L337.190634,14.6840774 L343.506566,14.6840774 Z M367.170201,28.8184225 C367.170201,19.2999115 354.210774,21.804247 354.210774,17.6147847 C354.210774,16.2033263 355.522227,15.2918967 357.910388,15.2918967 C360.017694,15.2918967 363.15021,15.7476115 365.48747,16.7039539 L366.09469,10.8054114 C363.710721,9.82391783 360.906368,9.26280774 358.050516,9.26280774 C350.751893,9.26280774 347.292412,12.9079274 347.292412,17.9333659 C347.292412,27.5884117 360.438677,25.0385646 360.438677,29.4561837 C360.438677,31.0952001 359.221242,32.2335888 356.318081,32.2335888 C353.883809,32.2335888 350.564457,31.5958276 348.227795,30.2747936 L347.479848,36.2068711 C349.863818,37.5153295 352.948426,38.1692593 356.36479,38.1692593 C364.038285,38.1692593 367.170201,34.3840118 367.170201,28.8184225 L367.170201,28.8184225 Z M397.673152,23.3384669 C397.673152,12.9552355 393.559143,8.74840692 387.010264,8.74840692 C384.435864,8.74840692 381.954883,9.54306336 380.035611,11.2719052 L379.894885,11.1790855 L379.988303,7.43815199 L379.988303,0.841964551 L372.742977,1.16892945 L372.742977,37.6075503 L377.651043,37.6075503 L378.585827,35.2690926 C380.316466,37.0015275 382.937574,38.1692593 386.120991,38.1692593 C393.372306,38.1692593 397.673152,33.7288843 397.673152,23.3420599 L397.673152,23.3384669 Z M390.193081,23.4821877 C390.193081,30.8299154 388.2271,32.3276062 384.950265,32.3276062 C382.516592,32.3276062 380.878175,31.2508976 379.988303,29.8939334 L379.988303,17.4920231 C381.018302,15.9943323 382.797447,15.1044608 384.903556,15.1044608 C388.367827,15.1044608 390.193081,16.4147157 390.193081,23.4821877 L390.193081,23.4821877 Z M411.427236,37.6075503 L411.427236,9.26280774 L403.994473,9.58617961 L403.994473,37.6075503 L411.427236,37.6075503 Z M411.848218,3.13131767 C411.848218,1.07491207 410.585271,-5.68434189e-14 407.734209,-5.68434189e-14 C404.929257,-5.68434189e-14 403.573491,1.12162134 403.573491,3.13131767 C403.573491,5.42126962 404.929257,6.21592606 407.734209,6.21592606 C410.585271,6.21592606 411.848218,5.18712443 411.848218,3.13131767 L411.848218,3.13131767 Z M444.175225,23.3384669 C444.175225,12.9552355 440.061815,8.74840692 433.512936,8.74840692 C430.937938,8.74840692 428.456957,9.54306336 426.537685,11.2719052 L426.397557,11.1790855 L426.490975,7.43815199 L426.490975,0.841964551 L419.24505,1.16892945 L419.24505,37.6075503 L424.153715,37.6075503 L425.0885,35.2690926 C426.818539,37.0015275 429.440247,38.1692593 432.623064,38.1692593 C439.874379,38.1692593 444.175225,33.7288843 444.175225,23.3420599 L444.175225,23.3384669 Z M436.695753,23.4821877 C436.695753,30.8299154 434.729772,32.3276062 431.452937,32.3276062 C429.018666,32.3276062 427.380248,31.2508976 426.490975,29.8939334 L426.490975,17.4920231 C427.520975,15.9943323 429.298921,15.1044608 431.406228,15.1044608 C434.8699,15.1044608 436.695753,16.4147157 436.695753,23.4821877 L436.695753,23.4821877 Z M457.555036,37.6075503 L457.555036,0.841964551 L450.216291,1.16833061 L450.216291,37.6075503 L457.555036,37.6075503 Z M473.133776,37.6075503 L473.133776,9.26280774 L465.701013,9.58617961 L465.701013,37.6075503 L473.133776,37.6075503 Z M473.555357,3.13131767 C473.555357,1.07491207 472.29241,-5.68434189e-14 469.440749,-5.68434189e-14 C466.636396,-5.68434189e-14 465.279432,1.12162134 465.279432,3.13131767 C465.279432,5.42126962 466.636396,6.21592606 469.440749,6.21592606 C472.29241,6.21592606 473.555357,5.18712443 473.555357,3.13131767 L473.555357,3.13131767 Z M505.414673,23.528897 C505.414673,13.1414737 501.487501,8.74840692 492.458239,8.74840692 C483.475088,8.74840692 479.455097,13.1414737 479.455097,23.528897 C479.455097,33.9636284 483.475088,38.2632767 492.458239,38.2632767 C501.487501,38.2632767 505.414673,33.9636284 505.414673,23.528897 L505.414673,23.528897 Z M486.981278,23.528897 C486.981278,16.6027505 488.432259,14.7301878 492.458239,14.7301878 C496.436911,14.7301878 497.887893,16.6027505 497.887893,23.528897 C497.887893,30.4556424 496.436911,32.3276062 492.458239,32.3276062 C488.479568,32.3276062 486.981278,30.5023516 486.981278,23.528897 L486.981278,23.528897 Z M525.387078,14.6840774 L525.387078,9.26280774 L519.071146,9.26280774 L519.071146,2.52589365 L513.368423,3.02592239 L512.152784,9.26280774 L508.644199,9.26280774 L508.644199,14.6840774 L511.825819,14.6840774 L511.825819,29.0352014 C511.825819,34.3367037 514.583463,37.6075503 520.240674,37.6075503 C522.252766,37.6075503 524.124131,37.2338762 525.106223,36.8134927 L524.685241,31.5407347 C524.17084,31.7221822 523.188149,31.8593158 522.439603,31.8593158 C520.193965,31.8593158 519.071146,30.9478862 519.071146,28.8070446 L519.071146,14.6840774 L525.387078,14.6840774 Z M554.392936,37.6075503 L554.392936,19.5496264 C554.392936,12.7204915 550.889741,8.70169765 544.901373,8.70169765 C542.512014,8.70169765 539.938213,9.35562744 537.831505,11.1323763 L537.691378,11.0383589 L537.784796,7.29802417 L537.784796,0.841964551 L530.53947,1.21623756 L530.53947,37.6075503 L537.784796,37.6075503 L537.784796,17.3039884 C538.674069,16.087152 540.499922,15.1511701 542.607828,15.1511701 C545.697826,15.1511701 547.147011,16.6482621 547.147011,19.5496264 L547.147011,37.6075503 L554.392936,37.6075503 Z M573.7174,38.12255 C577.322398,38.12255 580.592046,37.3746028 582.981405,36.2996908 L582.184952,30.4550435 C579.753675,31.3916243 577.274491,31.8593158 574.609667,31.8593158 C569.741124,31.8593158 567.447579,30.0801717 567.070311,25.3511574 L583.586231,25.3511574 C583.723963,24.3696639 583.77187,23.0138973 583.77187,21.9389853 C583.77187,12.9546367 579.334489,8.74840692 572.082575,8.74840692 C563.567116,8.74840692 559.59084,14.0289499 559.59084,23.0612055 C559.59084,32.9809372 563.938395,38.12255 573.7174,38.12255 L573.7174,38.12255 Z M566.932579,20.5377071 C567.255951,16.4165122 568.61531,14.7768971 572.130482,14.7768971 C575.172573,14.7768971 577.040944,16.369803 577.136758,20.5377071 L566.932579,20.5377071 Z M596.68878,0.841964551 L589.442854,1.16892945 L589.442854,37.6075503 L596.68878,37.6075503 L596.68878,25.400262 L600.383603,25.400262 L606.419878,37.6075503 L614.605977,37.6075503 L606.605517,22.1252235 L614.324524,9.26280774 L606.276157,9.26280774 L600.383603,19.5059113 L596.68878,19.5059113 L596.68878,0.841964551 L596.68878,0.841964551 Z" id="Fill-4"></path>
            </g>
        </g>
    </g>
</svg>